<?xml version="1.0" encoding="UTF-8"?>
<svg version="1.1" xmlns="http://www.w3.org/2000/svg" width="225" height="225">
<path d="M0 0 C74.25 0 148.5 0 225 0 C225 74.25 225 148.5 225 225 C150.75 225 76.5 225 0 225 C0 150.75 0 76.5 0 0 Z " fill="#050404" transform="translate(0,0)"/>
<path d="M0 0 C74.25 0 148.5 0 225 0 C225 38.28 225 76.56 225 116 C223.68 115.01 222.36 114.02 221 113 C218.45083598 112.68406383 216.15060816 112.53200241 213.6015625 112.53125 C212.88898285 112.52363647 212.1764032 112.51602295 211.44223022 112.50817871 C209.93775934 112.49739648 208.43321371 112.49451701 206.92871094 112.49902344 C204.63868842 112.4999942 202.35203754 112.4583952 200.0625 112.4140625 C198.59636111 112.40885355 197.13021064 112.40616734 195.6640625 112.40625 C194.98574371 112.38985474 194.30742493 112.37345947 193.60855103 112.35656738 C188.06147622 112.43630815 185.80237659 114.28526292 182 118 C181.98018066 117.40461426 181.96036133 116.80922852 181.93994141 116.19580078 C181.84483874 113.50507847 181.73510158 110.81514852 181.625 108.125 C181.57859375 106.71927734 181.57859375 106.71927734 181.53125 105.28515625 C181.49257812 104.38925781 181.45390625 103.49335937 181.4140625 102.5703125 C181.3826416 101.74289551 181.3512207 100.91547852 181.31884766 100.06298828 C181.17400863 97.78013915 181.17400863 97.78013915 179 96 C176.18597317 95.62760773 176.18597317 95.62760773 172.8984375 95.5859375 C171.68671875 95.54726562 170.475 95.50859375 169.2265625 95.46875 C167.95554688 95.4378125 166.68453125 95.406875 165.375 95.375 C164.09625 95.33632812 162.8175 95.29765625 161.5 95.2578125 C158.33347983 95.16328951 155.1669696 95.07773643 152 95 C151.96241577 93.78098999 151.96241577 93.78098999 151.92407227 92.53735352 C151.80850882 88.87889248 151.68560416 85.22071472 151.5625 81.5625 C151.52318359 80.28310547 151.48386719 79.00371094 151.44335938 77.68554688 C151.38051758 75.86313477 151.38051758 75.86313477 151.31640625 74.00390625 C151.27974854 72.87799072 151.24309082 71.7520752 151.20532227 70.59204102 C151.28781955 68.07146559 151.28781955 68.07146559 150 67 C148.07238183 66.90079137 146.14110646 66.87200635 144.2109375 66.87060547 C142.3539624 66.86587723 142.3539624 66.86587723 140.45947266 66.86105347 C139.09798141 66.86284325 137.73649049 66.8648942 136.375 66.8671875 C134.98876936 66.86651441 133.60253883 66.86554434 132.21630859 66.86428833 C129.30760578 66.8628116 126.39893363 66.8649651 123.49023438 66.86962891 C119.75403402 66.87532619 116.01790548 66.87204706 112.28170776 66.86605644 C109.41820734 66.86245015 106.55472407 66.86358973 103.69122314 66.86618423 C102.31325268 66.86685332 100.93528068 66.86602574 99.55731201 66.86370468 C97.63456246 66.86117708 95.71180748 66.86570976 93.7890625 66.87060547 C92.69287598 66.87140106 91.59668945 66.87219666 90.46728516 66.87301636 C88.05576649 66.72095765 88.05576649 66.72095765 87 68 C86.87692689 69.71774167 86.82213442 71.44042739 86.79467773 73.16235352 C86.77473251 74.26341934 86.75478729 75.36448517 86.73423767 76.49891663 C86.71752518 77.6968132 86.70081268 78.89470978 86.68359375 80.12890625 C86.6524221 81.95795753 86.6524221 81.95795753 86.62062073 83.82395935 C86.55499572 87.73674645 86.49618028 91.64960317 86.4375 95.5625 C86.39432709 98.20768962 86.35071322 100.85287209 86.30664062 103.49804688 C86.1993012 109.99862336 86.09755933 116.49926979 86 123 C82.7 123 79.4 123 76 123 C75.91932235 119.87448801 75.8596601 116.75104109 75.8125 113.625 C75.78736328 112.73554687 75.76222656 111.84609375 75.73632812 110.9296875 C75.72666016 110.07890625 75.71699219 109.228125 75.70703125 108.3515625 C75.6913208 107.56604004 75.67561035 106.78051758 75.65942383 105.97119141 C75.77181396 105.32069824 75.8842041 104.67020508 76 104 C76.99 103.34 77.98 102.68 79 102 C79.36530232 98.87442041 79.36530232 98.87442041 79.1875 95.375 C79.16042969 94.18648438 79.13335937 92.99796875 79.10546875 91.7734375 C79.05326172 90.40058594 79.05326172 90.40058594 79 89 C75.07854902 87.03927451 70.36631 87.39693727 66 87 C65.67 78.09 65.34 69.18 65 60 C61.83034858 58.41517429 58.36255459 58.62147177 54.875 58.4375 C52.27625 58.293125 49.6775 58.14875 47 58 C46.505 49.09 46.505 49.09 46 40 C44.68 40 43.36 40 42 40 C41.67 45.94 41.34 51.88 41 58 C32.5625 58.4375 32.5625 58.4375 29.90063477 58.56811523 C26.14029267 58.42687477 26.14029267 58.42687477 23 60 C22.84174742 61.99782126 22.74880829 64.00088834 22.68359375 66.00390625 C22.64169922 67.21884766 22.59980469 68.43378906 22.55664062 69.68554688 C22.51732422 70.96494141 22.47800781 72.24433594 22.4375 73.5625 C22.39431641 74.84576172 22.35113281 76.12902344 22.30664062 77.45117188 C22.200152 80.63399853 22.09814038 83.81690674 22 87 C21.15695313 87.04898438 20.31390625 87.09796875 19.4453125 87.1484375 C17.80175781 87.26058594 17.80175781 87.26058594 16.125 87.375 C14.48917969 87.47941406 14.48917969 87.47941406 12.8203125 87.5859375 C9.86953526 87.73253491 9.86953526 87.73253491 8 90 C7.60424204 92.56226114 7.60424204 92.56226114 7.625 95.4375 C7.59664063 96.40558594 7.56828125 97.37367187 7.5390625 98.37109375 C7.69117188 99.23863281 7.84328125 100.10617188 8 101 C8.99217529 101.6794165 8.99217529 101.6794165 10.00439453 102.37255859 C12 104 12 104 12.45410156 106.17651367 C12.4331543 106.99869385 12.41220703 107.82087402 12.390625 108.66796875 C12.37773437 109.56064453 12.36484375 110.45332031 12.3515625 111.37304688 C12.31804688 112.30181641 12.28453125 113.23058594 12.25 114.1875 C12.23195313 115.12787109 12.21390625 116.06824219 12.1953125 117.03710938 C12.1481655 119.35909889 12.08238231 121.6790369 12 124 C11.38511719 124.04898438 10.77023437 124.09796875 10.13671875 124.1484375 C8.92435547 124.26058594 8.92435547 124.26058594 7.6875 124.375 C6.48673828 124.47941406 6.48673828 124.47941406 5.26171875 124.5859375 C2.72775559 124.89564426 2.72775559 124.89564426 0 127 C0 85.09 0 43.18 0 0 Z " fill="#FDFDFD" transform="translate(0,0)"/>
<path d="M0 0 C0.33 0 0.66 0 1 0 C1 34.65 1 69.3 1 105 C-73.25 105 -147.5 105 -224 105 C-224 73.98 -224 42.96 -224 11 C-222.41051129 14.17897742 -221.10018136 17.26199248 -219.8125 20.5625 C-216.78713507 27.88424116 -212.88282085 34.56298607 -207.78515625 40.640625 C-206 43 -206 43 -206 45.8125 C-206.83618037 48.47782494 -207.76466298 50.55783356 -209.0625 53 C-210.90503995 56.48480382 -211.47585269 59.00283745 -211 63 C-210.67 63.66 -210.34 64.32 -210 65 C-150.93 65 -91.86 65 -31 65 C-26.15631848 55.31263697 -21.32143925 45.63277215 -16.625 35.875 C-15.80189331 34.16606567 -15.80189331 34.16606567 -14.9621582 32.42260742 C-9.81306861 21.68793825 -4.86105252 10.86774589 0 0 Z " fill="#FCFCFC" transform="translate(224,120)"/>
<path d="M0 0 C9.57 0 19.14 0 29 0 C23.07323466 13.87401887 16.56999886 27.417081 10 41 C-7.325 41.495 -7.325 41.495 -25 42 C-25.33 42.99 -25.66 43.98 -26 45 C-29.3 45 -32.6 45 -36 45 C-36.33 44.01 -36.66 43.02 -37 42 C-37.98618568 42.0060963 -37.98618568 42.0060963 -38.99229431 42.01231575 C-55.00978354 42.10788347 -71.02631713 42.14804087 -87.04403687 42.12697029 C-94.79027892 42.11810854 -102.53565722 42.12781367 -110.28173828 42.18164062 C-117.03546982 42.22852426 -123.7881982 42.24015082 -130.54204082 42.2099179 C-134.11670975 42.19513498 -137.68942567 42.19768213 -141.2638855 42.24249649 C-145.26061037 42.29194286 -149.25312718 42.26263998 -153.25 42.22705078 C-154.42748306 42.2536528 -155.60496613 42.28025482 -156.81813049 42.30766296 C-161.66157026 42.20976784 -164.75261589 42.09133373 -168.48439026 38.8264122 C-170.5415732 36.30123435 -172.31463983 33.78454488 -174 31 C-174.41052109 30.3324576 -174.82104218 29.6649152 -175.2440033 28.97714424 C-176.21773427 27.27601412 -177.08191538 25.51351089 -177.9375 23.75 C-178.50339844 22.61046875 -179.06929687 21.4709375 -179.65234375 20.296875 C-180.94684644 17.13003363 -181.49928515 14.36475677 -182 11 C-181.10178402 10.99668985 -180.20356804 10.99337971 -179.27813339 10.98996925 C-157.43728273 10.90880056 -135.59650188 10.81672829 -113.75574875 10.71247292 C-103.19378868 10.66231992 -92.63183649 10.61587731 -82.06982422 10.578125 C-72.8655474 10.54521635 -63.66133115 10.50539138 -54.45712113 10.45720994 C-49.58215226 10.43193376 -44.70722362 10.41015577 -39.83220673 10.39665604 C-35.24562767 10.38384586 -30.65918653 10.36180272 -26.07268333 10.33261681 C-24.3876437 10.32353286 -22.70258185 10.3178489 -21.017519 10.31578636 C-18.71975355 10.31246958 -16.42238053 10.29700826 -14.12469482 10.2784729 C-12.83787182 10.27294214 -11.55104881 10.26741138 -10.22523117 10.26171303 C-6.22842599 10.03433816 -6.22842599 10.03433816 -3 8 C-2.01 5.36 -1.02 2.72 0 0 Z " fill="#FE4B4B" transform="translate(189,119)"/>
<path d="M0 0 C3.3 0 6.6 0 10 0 C10.33 0.66 10.66 1.32 11 2 C21.23 2.33 31.46 2.66 42 3 C39 12 39 12 37 16 C-19.43 16 -75.86 16 -134 16 C-133 11 -133 11 -129 3 C-86.43 2.67 -43.86 2.34 0 2 C0 1.34 0 0.68 0 0 Z " fill="#32D6DB" transform="translate(153,164)"/>
<path d="M0 0 C19.8 0 39.6 0 60 0 C60 0.99 60 1.98 60 3 C47.13 3.33 34.26 3.66 21 4 C21 5.65 21 7.3 21 9 C32.55 9.33 44.1 9.66 56 10 C56 16.6 56 23.2 56 30 C38.84 30 21.68 30 4 30 C4 23.4 4 16.8 4 10 C5.98 9.67 7.96 9.34 10 9 C9.34 7.35 8.68 5.7 8 4 C5.36 3.67 2.72 3.34 0 3 C0 2.01 0 1.02 0 0 Z " fill="#E0EEFA" transform="translate(14,94)"/>
<path d="M0 0 C7.92 0 15.84 0 24 0 C18.07548549 13.86874989 11.57918531 27.43110549 5 41 C-2.59 41 -10.18 41 -18 41 C-16.06170876 35.18512627 -14.32673433 30.26985128 -11.6796875 24.8828125 C-11.37555939 24.25897675 -11.07143127 23.63514099 -10.75808716 22.99240112 C-9.80230111 21.03398128 -8.83909603 19.07934032 -7.875 17.125 C-6.90511355 15.14860944 -5.9368435 13.17144899 -4.9704895 11.19332886 C-4.10048216 9.41397265 -3.22590401 7.63685346 -2.35107422 5.85986328 C-0.94157028 3.02356213 -0.94157028 3.02356213 0 0 Z " fill="#EE2929" transform="translate(194,119)"/>
<path d="M0 0 C10.56 0 21.12 0 32 0 C32 7.59 32 15.18 32 23 C21.44 23 10.88 23 0 23 C0 15.41 0 7.82 0 0 Z " fill="#B4CEDD" transform="translate(28,64)"/>
<path d="M0 0 C7.92 0 15.84 0 24 0 C24 7.59 24 15.18 24 23 C16.08 23 8.16 23 0 23 C0 15.41 0 7.82 0 0 Z " fill="#E19C53" transform="translate(152,101)"/>
<path d="M0 0 C7.92 0 15.84 0 24 0 C24 7.59 24 15.18 24 23 C16.08 23 8.16 23 0 23 C0 15.41 0 7.82 0 0 Z " fill="#F1B666" transform="translate(122,101)"/>
<path d="M0 0 C7.92 0 15.84 0 24 0 C24 7.59 24 15.18 24 23 C16.08 23 8.16 23 0 23 C0 15.41 0 7.82 0 0 Z " fill="#E19C53" transform="translate(122,72)"/>
<path d="M0 0 C7.59 0 15.18 0 23 0 C23 7.59 23 15.18 23 23 C15.41 23 7.82 23 0 23 C0 15.41 0 7.82 0 0 Z " fill="#E8A156" transform="translate(93,101)"/>
<path d="M0 0 C7.59 0 15.18 0 23 0 C23 7.59 23 15.18 23 23 C15.41 23 7.82 23 0 23 C0 15.41 0 7.82 0 0 Z " fill="#F8BC69" transform="translate(93,72)"/>
<path d="M0 0 C0.33 0 0.66 0 1 0 C1 6.27 1 12.54 1 19 C10.57 19 20.14 19 30 19 C30 12.73 30 6.46 30 0 C37.26 0 44.52 0 52 0 C52 6.6 52 13.2 52 20 C34.84 20 17.68 20 0 20 C0 13.4 0 6.8 0 0 Z " fill="#B0C9D7" transform="translate(18,104)"/>
<path d="M0 0 C7.59 0 15.18 0 23 0 C20 9 20 9 18 13 C10.08 13 2.16 13 -6 13 C-4.02 8.71 -2.04 4.42 0 0 Z " fill="#0EADBD" transform="translate(172,167)"/>
<path d="M0 0 C19.8 0 39.6 0 60 0 C60 0.99 60 1.98 60 3 C47.13 3.33 34.26 3.66 21 4 C20.34 5.32 19.68 6.64 19 8 C16.03 8 13.06 8 10 8 C9.34 6.68 8.68 5.36 8 4 C5.32209537 3.16113831 2.8262059 3.18233586 0 3 C0 2.01 0 1.02 0 0 Z " fill="#C9C9C8" transform="translate(14,94)"/>
<path d="M0 0 C3.3 0 6.6 0 10 0 C10 7.26 10 14.52 10 22 C6.7 22 3.4 22 0 22 C0 14.74 0 7.48 0 0 Z " fill="#E0EEFA" transform="translate(28,65)"/>
<path d="M0 0 C6.93 0 13.86 0 21 0 C21 0.99 21 1.98 21 3 C14.07 3 7.14 3 0 3 C0 2.01 0 1.02 0 0 Z " fill="#B8BAC0" transform="translate(53,94)"/>
</svg>
